<mxfile host="app.diagrams.net" modified="2023-05-22T03:34:07.886Z" agent="Mozilla/5.0 (Macintosh; Intel Mac OS X 10_15_7) AppleWebKit/605.1.15 (KHTML, like Gecko) Version/16.4 Safari/605.1.15" etag="LV-q3CapKlwyrNGH6a-f" version="21.3.2" type="github">
  <diagram name="Página-1" id="dgo7cwSUL4VlbmiZqwIb">
    <mxGraphModel dx="1026" dy="633" grid="1" gridSize="10" guides="1" tooltips="1" connect="1" arrows="1" fold="1" page="1" pageScale="1" pageWidth="827" pageHeight="1169" background="#FFFFFF" math="0" shadow="0">
      <root>
        <mxCell id="0" />
        <mxCell id="1" parent="0" />
        <mxCell id="2mgMftnQy1dVy7I0jVlI-13" value="F" style="rounded=1;whiteSpace=wrap;html=1;fillColor=none;strokeWidth=4;strokeColor=#000000;perimeterSpacing=0;opacity=40;glass=0;shadow=0;" vertex="1" parent="1">
          <mxGeometry x="50" y="120" width="760" height="730" as="geometry" />
        </mxCell>
        <mxCell id="2mgMftnQy1dVy7I0jVlI-1" value="&lt;font color=&quot;#000000&quot; style=&quot;font-size: 20px;&quot;&gt;&lt;b&gt;USUARIO&lt;/b&gt;&lt;/font&gt;" style="fontColor=#0066CC;verticalAlign=top;verticalLabelPosition=bottom;labelPosition=center;align=center;html=1;outlineConnect=0;fillColor=#CCCCCC;strokeColor=#6881B3;gradientColor=none;gradientDirection=north;strokeWidth=2;shape=mxgraph.networks.pc;" vertex="1" parent="1">
          <mxGeometry x="100" y="230" width="100" height="70" as="geometry" />
        </mxCell>
        <mxCell id="2mgMftnQy1dVy7I0jVlI-2" value="&lt;font style=&quot;font-size: 20px;&quot;&gt;&lt;b&gt;&lt;font color=&quot;#000000&quot;&gt;WEB / BD&lt;/font&gt;&lt;br&gt;&lt;/b&gt;&lt;/font&gt;" style="fontColor=#0066CC;verticalAlign=top;verticalLabelPosition=bottom;labelPosition=center;align=center;html=1;outlineConnect=0;fillColor=#CCCCCC;strokeColor=#6881B3;gradientColor=none;gradientDirection=north;strokeWidth=2;shape=mxgraph.networks.server;" vertex="1" parent="1">
          <mxGeometry x="350" y="210" width="90" height="100" as="geometry" />
        </mxCell>
        <mxCell id="2mgMftnQy1dVy7I0jVlI-5" value="&lt;font color=&quot;#000000&quot; style=&quot;font-size: 20px;&quot;&gt;ALTA DISPONIBILIDAD&lt;/font&gt;" style="swimlane;whiteSpace=wrap;html=1;startSize=40;fillColor=none;strokeColor=#000000;strokeWidth=3;" vertex="1" parent="1">
          <mxGeometry x="320" y="150" width="430" height="210" as="geometry" />
        </mxCell>
        <mxCell id="2mgMftnQy1dVy7I0jVlI-4" value="&lt;font color=&quot;#000000&quot; style=&quot;font-size: 20px;&quot;&gt;&lt;b&gt;WEB / BD&lt;/b&gt;&lt;/font&gt;" style="fontColor=#0066CC;verticalAlign=top;verticalLabelPosition=bottom;labelPosition=center;align=center;html=1;outlineConnect=0;fillColor=#CCCCCC;strokeColor=#6881B3;gradientColor=none;gradientDirection=north;strokeWidth=2;shape=mxgraph.networks.server;" vertex="1" parent="2mgMftnQy1dVy7I0jVlI-5">
          <mxGeometry x="310" y="60" width="90" height="100" as="geometry" />
        </mxCell>
        <mxCell id="2mgMftnQy1dVy7I0jVlI-6" value="" style="endArrow=classic;startArrow=classic;html=1;rounded=0;entryX=0;entryY=0.5;entryDx=0;entryDy=0;entryPerimeter=0;exitX=1;exitY=0.5;exitDx=0;exitDy=0;exitPerimeter=0;strokeWidth=3;strokeColor=#000000;" edge="1" parent="1" source="2mgMftnQy1dVy7I0jVlI-2" target="2mgMftnQy1dVy7I0jVlI-4">
          <mxGeometry width="50" height="50" relative="1" as="geometry">
            <mxPoint x="390" y="350" as="sourcePoint" />
            <mxPoint x="440" y="300" as="targetPoint" />
          </mxGeometry>
        </mxCell>
        <mxCell id="2mgMftnQy1dVy7I0jVlI-7" value="&lt;font color=&quot;#000000&quot;&gt;REPLICACIÓN&lt;/font&gt;" style="edgeLabel;html=1;align=center;verticalAlign=middle;resizable=0;points=[];labelBackgroundColor=none;" vertex="1" connectable="0" parent="2mgMftnQy1dVy7I0jVlI-6">
          <mxGeometry x="0.1789" y="-2" relative="1" as="geometry">
            <mxPoint x="-12" y="-12" as="offset" />
          </mxGeometry>
        </mxCell>
        <mxCell id="2mgMftnQy1dVy7I0jVlI-8" value="" style="endArrow=classic;html=1;rounded=0;strokeWidth=2;strokeColor=#000000;" edge="1" parent="1">
          <mxGeometry width="50" height="50" relative="1" as="geometry">
            <mxPoint x="200" y="247.5" as="sourcePoint" />
            <mxPoint x="320" y="248" as="targetPoint" />
          </mxGeometry>
        </mxCell>
        <mxCell id="2mgMftnQy1dVy7I0jVlI-10" value="&lt;font color=&quot;#000000&quot;&gt;PETICIÓN&lt;/font&gt;" style="edgeLabel;html=1;align=center;verticalAlign=middle;resizable=0;points=[];labelBackgroundColor=none;" vertex="1" connectable="0" parent="2mgMftnQy1dVy7I0jVlI-8">
          <mxGeometry x="0.3167" y="-1" relative="1" as="geometry">
            <mxPoint x="-19" y="-9" as="offset" />
          </mxGeometry>
        </mxCell>
        <mxCell id="2mgMftnQy1dVy7I0jVlI-9" value="" style="endArrow=none;html=1;rounded=0;strokeWidth=2;endFill=0;startArrow=classic;startFill=1;strokeColor=#000000;" edge="1" parent="1">
          <mxGeometry width="50" height="50" relative="1" as="geometry">
            <mxPoint x="200" y="270" as="sourcePoint" />
            <mxPoint x="320" y="270.5" as="targetPoint" />
          </mxGeometry>
        </mxCell>
        <mxCell id="2mgMftnQy1dVy7I0jVlI-11" value="&lt;font color=&quot;#000000&quot;&gt;RESPUESTA&lt;/font&gt;" style="edgeLabel;html=1;align=center;verticalAlign=middle;resizable=0;points=[];labelBackgroundColor=none;" vertex="1" connectable="0" parent="2mgMftnQy1dVy7I0jVlI-9">
          <mxGeometry x="0.0834" y="-1" relative="1" as="geometry">
            <mxPoint y="9" as="offset" />
          </mxGeometry>
        </mxCell>
        <mxCell id="2mgMftnQy1dVy7I0jVlI-14" value="&lt;h1&gt;&lt;font color=&quot;#000000&quot;&gt;&lt;font style=&quot;font-size: 20px;&quot;&gt;INDICACIONES&lt;/font&gt;&lt;span style=&quot;font-size: 23px;&quot;&gt;:&lt;/span&gt;&lt;/font&gt;&lt;/h1&gt;&lt;h1 style=&quot;font-size: 15px;&quot;&gt;&lt;font style=&quot;font-size: 15px;&quot; color=&quot;#000000&quot;&gt;&lt;span style=&quot;font-weight: normal;&quot;&gt;Desarrolle la arquitectura&amp;nbsp;&lt;/span&gt;&lt;span style=&quot;caret-color: rgb(0, 0, 0); font-weight: 400;&quot;&gt;planteada anteriormente dando cumplimiento a lo que se menciona a continuación:&lt;/span&gt;&lt;br&gt;&lt;/font&gt;&lt;/h1&gt;&lt;div style=&quot;font-size: 15px;&quot;&gt;&lt;ul&gt;&lt;li&gt;&lt;font style=&quot;font-size: 15px;&quot; color=&quot;#000000&quot;&gt;&lt;span style=&quot;caret-color: rgb(0, 0, 0);&quot;&gt;Cada servidor debe tener Alma Linux como sistema operativo.&lt;/span&gt;&lt;/font&gt;&lt;/li&gt;&lt;li&gt;&lt;font style=&quot;font-size: 15px;&quot; color=&quot;#000000&quot;&gt;&lt;span style=&quot;caret-color: rgb(0, 0, 0);&quot;&gt;Utilice MySQL como gestor de base de datos.&lt;/span&gt;&lt;/font&gt;&lt;/li&gt;&lt;li&gt;&lt;font style=&quot;font-size: 15px;&quot; color=&quot;#000000&quot;&gt;&lt;span style=&quot;caret-color: rgb(0, 0, 0);&quot;&gt;Utilice el servidor Web de su preferencia (nginx o apache).&lt;/span&gt;&lt;/font&gt;&lt;/li&gt;&lt;li&gt;&lt;font style=&quot;font-size: 15px;&quot; color=&quot;#000000&quot;&gt;&lt;span style=&quot;caret-color: rgb(0, 0, 0);&quot;&gt;Debe levantar el administrador de base de datos phpMyAdmin.&lt;/span&gt;&lt;/font&gt;&lt;/li&gt;&lt;li&gt;&lt;font style=&quot;font-size: 15px;&quot; color=&quot;#000000&quot;&gt;&lt;span style=&quot;caret-color: rgb(0, 0, 0);&quot;&gt;Debe garantizar alta disponibilidad entre servidores Web.&lt;/span&gt;&lt;/font&gt;&lt;/li&gt;&lt;li&gt;&lt;font style=&quot;font-size: 15px;&quot; color=&quot;#000000&quot;&gt;&lt;span style=&quot;caret-color: rgb(0, 0, 0);&quot;&gt;Debe garantizar la integridad y disponibilidad de los datos a la tabla de productos.&amp;nbsp;&lt;/span&gt;&lt;/font&gt;&lt;/li&gt;&lt;li&gt;&lt;font style=&quot;font-size: 15px;&quot; color=&quot;#000000&quot;&gt;&lt;span style=&quot;caret-color: rgb(0, 0, 0);&quot;&gt;Para el punto anterior se debe utilizar replicación en las bases de datos.&lt;/span&gt;&lt;/font&gt;&lt;/li&gt;&lt;/ul&gt;&lt;/div&gt;" style="text;html=1;strokeColor=none;fillColor=none;spacing=5;spacingTop=-20;whiteSpace=wrap;overflow=hidden;rounded=0;" vertex="1" parent="1">
          <mxGeometry x="80" y="590" width="700" height="235" as="geometry" />
        </mxCell>
        <mxCell id="2mgMftnQy1dVy7I0jVlI-19" value="&lt;font style=&quot;font-size: 15px;&quot; color=&quot;#000000&quot;&gt;CATEGORIAS&lt;/font&gt;" style="swimlane;whiteSpace=wrap;html=1;startSize=40;fillColor=none;strokeColor=#000000;strokeWidth=3;" vertex="1" parent="1">
          <mxGeometry x="180" y="400" width="190" height="165" as="geometry" />
        </mxCell>
        <mxCell id="2mgMftnQy1dVy7I0jVlI-22" value="&lt;ul&gt;&lt;li&gt;&lt;font color=&quot;#000000&quot;&gt;&lt;span style=&quot;caret-color: rgb(0, 0, 0);&quot;&gt;CAT_ID&lt;/span&gt;&lt;/font&gt;&lt;/li&gt;&lt;li&gt;&lt;font color=&quot;#000000&quot;&gt;&lt;span style=&quot;caret-color: rgb(0, 0, 0);&quot;&gt;CAT_NOMBRE&lt;/span&gt;&lt;/font&gt;&lt;/li&gt;&lt;li&gt;&lt;font color=&quot;#000000&quot;&gt;&lt;span style=&quot;caret-color: rgb(0, 0, 0);&quot;&gt;CAT_DESCRIPCION&lt;/span&gt;&lt;/font&gt;&lt;/li&gt;&lt;/ul&gt;" style="text;html=1;align=left;verticalAlign=middle;resizable=0;points=[];autosize=1;strokeColor=none;fillColor=none;" vertex="1" parent="2mgMftnQy1dVy7I0jVlI-19">
          <mxGeometry x="5" y="62.5" width="180" height="80" as="geometry" />
        </mxCell>
        <mxCell id="2mgMftnQy1dVy7I0jVlI-23" value="&lt;font style=&quot;font-size: 15px;&quot; color=&quot;#000000&quot;&gt;PRODUCTOS&lt;/font&gt;" style="swimlane;whiteSpace=wrap;html=1;startSize=40;fillColor=none;strokeColor=#000000;strokeWidth=3;" vertex="1" parent="1">
          <mxGeometry x="450" y="400" width="190" height="165" as="geometry" />
        </mxCell>
        <mxCell id="2mgMftnQy1dVy7I0jVlI-24" value="&lt;ul&gt;&lt;li&gt;&lt;font color=&quot;#000000&quot;&gt;&lt;span style=&quot;caret-color: rgb(0, 0, 0);&quot;&gt;PRO_ID&lt;/span&gt;&lt;/font&gt;&lt;/li&gt;&lt;li&gt;&lt;font color=&quot;#000000&quot;&gt;&lt;span style=&quot;caret-color: rgb(0, 0, 0);&quot;&gt;CAT_ID&lt;/span&gt;&lt;/font&gt;&lt;/li&gt;&lt;li&gt;&lt;font color=&quot;#000000&quot;&gt;&lt;span style=&quot;caret-color: rgb(0, 0, 0);&quot;&gt;PRO_NOMBRE&lt;/span&gt;&lt;/font&gt;&lt;/li&gt;&lt;li&gt;&lt;font color=&quot;#000000&quot;&gt;&lt;span style=&quot;caret-color: rgb(0, 0, 0);&quot;&gt;PRO_STOCK&lt;/span&gt;&lt;/font&gt;&lt;/li&gt;&lt;li&gt;&lt;font color=&quot;#000000&quot;&gt;&lt;span style=&quot;caret-color: rgb(0, 0, 0);&quot;&gt;PRO_PRECIO&lt;/span&gt;&lt;/font&gt;&lt;/li&gt;&lt;li&gt;&lt;font color=&quot;#000000&quot;&gt;&lt;span style=&quot;caret-color: rgb(0, 0, 0);&quot;&gt;PRO_DESCRIPCION&lt;/span&gt;&lt;/font&gt;&lt;/li&gt;&lt;/ul&gt;" style="text;html=1;align=left;verticalAlign=middle;resizable=0;points=[];autosize=1;strokeColor=none;fillColor=none;" vertex="1" parent="2mgMftnQy1dVy7I0jVlI-23">
          <mxGeometry x="5" y="42.5" width="180" height="120" as="geometry" />
        </mxCell>
        <mxCell id="2mgMftnQy1dVy7I0jVlI-25" value="" style="endArrow=none;html=1;rounded=0;exitX=1;exitY=0.5;exitDx=0;exitDy=0;entryX=0;entryY=0.5;entryDx=0;entryDy=0;strokeColor=#000000;strokeWidth=3;" edge="1" parent="1" source="2mgMftnQy1dVy7I0jVlI-19" target="2mgMftnQy1dVy7I0jVlI-23">
          <mxGeometry width="50" height="50" relative="1" as="geometry">
            <mxPoint x="50" y="520" as="sourcePoint" />
            <mxPoint x="100" y="470" as="targetPoint" />
          </mxGeometry>
        </mxCell>
      </root>
    </mxGraphModel>
  </diagram>
</mxfile>
